<svg width="18" height="19" viewBox="0 0 18 19" fill="none" xmlns="http://www.w3.org/2000/svg">
    <path
        d="M0.666016 19.0013V17.3346H17.3327V19.0013H0.666016ZM3.99935 12.3346H5.16602L11.666 5.85546L10.4785 4.66797L3.99935 11.168V12.3346ZM2.33268 14.0013V10.4596L11.666 1.14713C11.8188 0.994354 11.9959 0.876298 12.1973 0.792965C12.3987 0.709632 12.6105 0.667965 12.8327 0.667965C13.0549 0.667965 13.2702 0.709632 13.4785 0.792965C13.6868 0.876298 13.8743 1.0013 14.041 1.16796L15.1868 2.33463C15.3535 2.48741 15.475 2.66797 15.5514 2.8763C15.6278 3.08463 15.666 3.29991 15.666 3.52213C15.666 3.73046 15.6278 3.93533 15.5514 4.13671C15.475 4.3381 15.3535 4.52213 15.1868 4.6888L5.87435 14.0013H2.33268Z"
        fill="#707070" />
</svg>
    