<svg width="21" height="22" viewBox="0 0 21 22" fill="none" xmlns="http://www.w3.org/2000/svg">
    <path
        d="M0.136719 22.002V20.002H20.1367V22.002H0.136719ZM4.13672 14.002H5.53672L13.3367 6.22695L11.9117 4.80195L4.13672 12.602V14.002ZM2.13672 16.002V11.752L13.3367 0.576953C13.5201 0.39362 13.7326 0.251953 13.9742 0.151953C14.2159 0.0519531 14.4701 0.00195312 14.7367 0.00195312C15.0034 0.00195312 15.2617 0.0519531 15.5117 0.151953C15.7617 0.251953 15.9867 0.401953 16.1867 0.601953L17.5617 2.00195C17.7617 2.18529 17.9076 2.40195 17.9992 2.65195C18.0909 2.90195 18.1367 3.16029 18.1367 3.42695C18.1367 3.67695 18.0909 3.92279 17.9992 4.16445C17.9076 4.40612 17.7617 4.62695 17.5617 4.82695L6.38672 16.002H2.13672Z"
        fill="#707070" />
</svg>
