<svg width="23" height="15" viewBox="0 0 23 15" fill="none" xmlns="http://www.w3.org/2000/svg">
    <path
        d="M11.1387 11.998C12.3887 11.998 13.4512 11.5605 14.3262 10.6855C15.2012 9.81055 15.6387 8.74805 15.6387 7.49805C15.6387 6.24805 15.2012 5.18555 14.3262 4.31055C13.4512 3.43555 12.3887 2.99805 11.1387 2.99805C9.88867 2.99805 8.82617 3.43555 7.95117 4.31055C7.07617 5.18555 6.63867 6.24805 6.63867 7.49805C6.63867 8.74805 7.07617 9.81055 7.95117 10.6855C8.82617 11.5605 9.88867 11.998 11.1387 11.998ZM11.1387 10.198C10.3887 10.198 9.75117 9.93555 9.22617 9.41055C8.70117 8.88555 8.43867 8.24805 8.43867 7.49805C8.43867 6.74805 8.70117 6.11055 9.22617 5.58555C9.75117 5.06055 10.3887 4.79805 11.1387 4.79805C11.8887 4.79805 12.5262 5.06055 13.0512 5.58555C13.5762 6.11055 13.8387 6.74805 13.8387 7.49805C13.8387 8.24805 13.5762 8.88555 13.0512 9.41055C12.5262 9.93555 11.8887 10.198 11.1387 10.198ZM11.1387 14.998C8.70534 14.998 6.48867 14.3189 4.48867 12.9605C2.48867 11.6022 1.03867 9.78138 0.138672 7.49805C1.03867 5.21471 2.48867 3.39388 4.48867 2.03555C6.48867 0.677214 8.70534 -0.00195312 11.1387 -0.00195312C13.572 -0.00195312 15.7887 0.677214 17.7887 2.03555C19.7887 3.39388 21.2387 5.21471 22.1387 7.49805C21.2387 9.78138 19.7887 11.6022 17.7887 12.9605C15.7887 14.3189 13.572 14.998 11.1387 14.998ZM11.1387 12.998C13.022 12.998 14.7512 12.5022 16.3262 11.5105C17.9012 10.5189 19.1053 9.18138 19.9387 7.49805C19.1053 5.81471 17.9012 4.47721 16.3262 3.48555C14.7512 2.49388 13.022 1.99805 11.1387 1.99805C9.25534 1.99805 7.52617 2.49388 5.95117 3.48555C4.37617 4.47721 3.17201 5.81471 2.33867 7.49805C3.17201 9.18138 4.37617 10.5189 5.95117 11.5105C7.52617 12.5022 9.25534 12.998 11.1387 12.998Z"
        fill="#707070" />
</svg>
    