<svg width="36" height="36" viewBox="0 0 36 36" fill="none" xmlns="http://www.w3.org/2000/svg">
    <g clip-path="url(#clip0_509_233)">
        <mask id="path-1-inside-1_509_233" fill="white">
            <path
                d="M29.1452 19.47C29.2052 18.99 29.2502 18.51 29.2502 18C29.2502 17.49 29.2052 17.01 29.1452 16.53L32.3102 14.055C32.5952 13.83 32.6702 13.425 32.4902 13.095L29.4902 7.905C29.3552 7.665 29.1002 7.53 28.8302 7.53C28.7402 7.53 28.6502 7.545 28.5752 7.575L24.8402 9.075C24.0602 8.475 23.2202 7.98 22.3052 7.605L21.7352 3.63C21.6902 3.27 21.3752 3 21.0002 3H15.0002C14.6252 3 14.3102 3.27 14.2652 3.63L13.6952 7.605C12.7802 7.98 11.9402 8.49 11.1602 9.075L7.42525 7.575C7.33525 7.545 7.24525 7.53 7.15525 7.53C6.90025 7.53 6.64525 7.665 6.51025 7.905L3.51025 13.095C3.31525 13.425 3.40525 13.83 3.69025 14.055L6.85525 16.53C6.79525 17.01 6.75025 17.505 6.75025 18C6.75025 18.495 6.79525 18.99 6.85525 19.47L3.69025 21.945C3.40525 22.17 3.33025 22.575 3.51025 22.905L6.51025 28.095C6.64525 28.335 6.90025 28.47 7.17025 28.47C7.26025 28.47 7.35025 28.455 7.42525 28.425L11.1602 26.925C11.9402 27.525 12.7802 28.02 13.6952 28.395L14.2652 32.37C14.3102 32.73 14.6252 33 15.0002 33H21.0002C21.3752 33 21.6902 32.73 21.7352 32.37L22.3052 28.395C23.2202 28.02 24.0602 27.51 24.8402 26.925L28.5752 28.425C28.6652 28.455 28.7552 28.47 28.8452 28.47C29.1002 28.47 29.3552 28.335 29.4902 28.095L32.4902 22.905C32.6702 22.575 32.5952 22.17 32.3102 21.945L29.1452 19.47ZM26.1752 16.905C26.2352 17.37 26.2502 17.685 26.2502 18C26.2502 18.315 26.2202 18.645 26.1752 19.095L25.9652 20.79L27.3002 21.84L28.9202 23.1L27.8702 24.915L25.9652 24.15L24.4052 23.52L23.0552 24.54C22.4102 25.02 21.7952 25.38 21.1802 25.635L19.5902 26.28L19.3502 27.975L19.0502 30H16.9502L16.6652 27.975L16.4252 26.28L14.8352 25.635C14.1902 25.365 13.5902 25.02 12.9902 24.57L11.6252 23.52L10.0352 24.165L8.13025 24.93L7.08025 23.115L8.70025 21.855L10.0352 20.805L9.82525 19.11C9.78025 18.645 9.75025 18.3 9.75025 18C9.75025 17.7 9.78025 17.355 9.82525 16.905L10.0352 15.21L8.70025 14.16L7.08025 12.9L8.13025 11.085L10.0352 11.85L11.5952 12.48L12.9452 11.46C13.5902 10.98 14.2052 10.62 14.8202 10.365L16.4102 9.72L16.6502 8.025L16.9502 6H19.0352L19.3202 8.025L19.5602 9.72L21.1502 10.365C21.7952 10.635 22.3952 10.98 22.9952 11.43L24.3602 12.48L25.9502 11.835L27.8552 11.07L28.9052 12.885L27.3002 14.16L25.9652 15.21L26.1752 16.905ZM18.0002 12C14.6852 12 12.0002 14.685 12.0002 18C12.0002 21.315 14.6852 24 18.0002 24C21.3152 24 24.0002 21.315 24.0002 18C24.0002 14.685 21.3152 12 18.0002 12ZM18.0002 21C16.3502 21 15.0002 19.65 15.0002 18C15.0002 16.35 16.3502 15 18.0002 15C19.6502 15 21.0002 16.35 21.0002 18C21.0002 19.65 19.6502 21 18.0002 21Z" />
        </mask>
        <path
            d="M29.1452 19.47C29.2052 18.99 29.2502 18.51 29.2502 18C29.2502 17.49 29.2052 17.01 29.1452 16.53L32.3102 14.055C32.5952 13.83 32.6702 13.425 32.4902 13.095L29.4902 7.905C29.3552 7.665 29.1002 7.53 28.8302 7.53C28.7402 7.53 28.6502 7.545 28.5752 7.575L24.8402 9.075C24.0602 8.475 23.2202 7.98 22.3052 7.605L21.7352 3.63C21.6902 3.27 21.3752 3 21.0002 3H15.0002C14.6252 3 14.3102 3.27 14.2652 3.63L13.6952 7.605C12.7802 7.98 11.9402 8.49 11.1602 9.075L7.42525 7.575C7.33525 7.545 7.24525 7.53 7.15525 7.53C6.90025 7.53 6.64525 7.665 6.51025 7.905L3.51025 13.095C3.31525 13.425 3.40525 13.83 3.69025 14.055L6.85525 16.53C6.79525 17.01 6.75025 17.505 6.75025 18C6.75025 18.495 6.79525 18.99 6.85525 19.47L3.69025 21.945C3.40525 22.17 3.33025 22.575 3.51025 22.905L6.51025 28.095C6.64525 28.335 6.90025 28.47 7.17025 28.47C7.26025 28.47 7.35025 28.455 7.42525 28.425L11.1602 26.925C11.9402 27.525 12.7802 28.02 13.6952 28.395L14.2652 32.37C14.3102 32.73 14.6252 33 15.0002 33H21.0002C21.3752 33 21.6902 32.73 21.7352 32.37L22.3052 28.395C23.2202 28.02 24.0602 27.51 24.8402 26.925L28.5752 28.425C28.6652 28.455 28.7552 28.47 28.8452 28.47C29.1002 28.47 29.3552 28.335 29.4902 28.095L32.4902 22.905C32.6702 22.575 32.5952 22.17 32.3102 21.945L29.1452 19.47ZM26.1752 16.905C26.2352 17.37 26.2502 17.685 26.2502 18C26.2502 18.315 26.2202 18.645 26.1752 19.095L25.9652 20.79L27.3002 21.84L28.9202 23.1L27.8702 24.915L25.9652 24.15L24.4052 23.52L23.0552 24.54C22.4102 25.02 21.7952 25.38 21.1802 25.635L19.5902 26.28L19.3502 27.975L19.0502 30H16.9502L16.6652 27.975L16.4252 26.28L14.8352 25.635C14.1902 25.365 13.5902 25.02 12.9902 24.57L11.6252 23.52L10.0352 24.165L8.13025 24.93L7.08025 23.115L8.70025 21.855L10.0352 20.805L9.82525 19.11C9.78025 18.645 9.75025 18.3 9.75025 18C9.75025 17.7 9.78025 17.355 9.82525 16.905L10.0352 15.21L8.70025 14.16L7.08025 12.9L8.13025 11.085L10.0352 11.85L11.5952 12.48L12.9452 11.46C13.5902 10.98 14.2052 10.62 14.8202 10.365L16.4102 9.72L16.6502 8.025L16.9502 6H19.0352L19.3202 8.025L19.5602 9.72L21.1502 10.365C21.7952 10.635 22.3952 10.98 22.9952 11.43L24.3602 12.48L25.9502 11.835L27.8552 11.07L28.9052 12.885L27.3002 14.16L25.9652 15.21L26.1752 16.905ZM18.0002 12C14.6852 12 12.0002 14.685 12.0002 18C12.0002 21.315 14.6852 24 18.0002 24C21.3152 24 24.0002 21.315 24.0002 18C24.0002 14.685 21.3152 12 18.0002 12ZM18.0002 21C16.3502 21 15.0002 19.65 15.0002 18C15.0002 16.35 16.3502 15 18.0002 15C19.6502 15 21.0002 16.35 21.0002 18C21.0002 19.65 19.6502 21 18.0002 21Z"
            fill="white" stroke="#0B242D" mask="url(#path-1-inside-1_509_233)" />
    </g>
    <defs>
        <clipPath id="clip0_509_233">
            <rect width="36" height="36" fill="white" />
        </clipPath>
    </defs>
</svg>