<svg width="5" height="16" viewBox="0 0 5 16" fill="none" xmlns="http://www.w3.org/2000/svg">
    <path
        d="M2.13867 15.998C1.58867 15.998 1.11784 15.8022 0.726172 15.4105C0.334505 15.0189 0.138672 14.548 0.138672 13.998C0.138672 13.448 0.334505 12.9772 0.726172 12.5855C1.11784 12.1939 1.58867 11.998 2.13867 11.998C2.68867 11.998 3.15951 12.1939 3.55117 12.5855C3.94284 12.9772 4.13867 13.448 4.13867 13.998C4.13867 14.548 3.94284 15.0189 3.55117 15.4105C3.15951 15.8022 2.68867 15.998 2.13867 15.998ZM2.13867 9.99805C1.58867 9.99805 1.11784 9.80221 0.726172 9.41055C0.334505 9.01888 0.138672 8.54805 0.138672 7.99805C0.138672 7.44805 0.334505 6.97721 0.726172 6.58555C1.11784 6.19388 1.58867 5.99805 2.13867 5.99805C2.68867 5.99805 3.15951 6.19388 3.55117 6.58555C3.94284 6.97721 4.13867 7.44805 4.13867 7.99805C4.13867 8.54805 3.94284 9.01888 3.55117 9.41055C3.15951 9.80221 2.68867 9.99805 2.13867 9.99805ZM2.13867 3.99805C1.58867 3.99805 1.11784 3.80221 0.726172 3.41055C0.334505 3.01888 0.138672 2.54805 0.138672 1.99805C0.138672 1.44805 0.334505 0.977214 0.726172 0.585547C1.11784 0.19388 1.58867 -0.00195312 2.13867 -0.00195312C2.68867 -0.00195312 3.15951 0.19388 3.55117 0.585547C3.94284 0.977214 4.13867 1.44805 4.13867 1.99805C4.13867 2.54805 3.94284 3.01888 3.55117 3.41055C3.15951 3.80221 2.68867 3.99805 2.13867 3.99805Z"
        fill="#707070" />
</svg>
    